<svg width="38" height="38" viewBox="0 0 38 38" fill="none" xmlns="http://www.w3.org/2000/svg">
<path d="M17.3334 14H24.0001C24.4421 14 24.866 13.8244 25.1786 13.5118C25.4912 13.1992 25.6668 12.7753 25.6668 12.3333C25.6668 11.8913 25.4912 11.4673 25.1786 11.1548C24.866 10.8422 24.4421 10.6666 24.0001 10.6666H20.6668V8.99996C20.6668 8.55793 20.4912 8.13401 20.1786 7.82145C19.866 7.50889 19.4421 7.33329 19.0001 7.33329C18.5581 7.33329 18.1341 7.50889 17.8216 7.82145C17.509 8.13401 17.3334 8.55793 17.3334 8.99996V10.6666C16.0073 10.6666 14.7356 11.1934 13.7979 12.1311C12.8602 13.0688 12.3334 14.3405 12.3334 15.6666C12.3334 16.9927 12.8602 18.2645 13.7979 19.2022C14.7356 20.1398 16.0073 20.6666 17.3334 20.6666H20.6668C21.1088 20.6666 21.5327 20.8422 21.8453 21.1548C22.1578 21.4673 22.3334 21.8913 22.3334 22.3333C22.3334 22.7753 22.1578 23.1992 21.8453 23.5118C21.5327 23.8244 21.1088 24 20.6668 24H14.0001C13.5581 24 13.1341 24.1756 12.8216 24.4881C12.509 24.8007 12.3334 25.2246 12.3334 25.6666C12.3334 26.1087 12.509 26.5326 12.8216 26.8451C13.1341 27.1577 13.5581 27.3333 14.0001 27.3333H17.3334V29C17.3334 29.442 17.509 29.8659 17.8216 30.1785C18.1341 30.491 18.5581 30.6666 19.0001 30.6666C19.4421 30.6666 19.866 30.491 20.1786 30.1785C20.4912 29.8659 20.6668 29.442 20.6668 29V27.3333C21.9928 27.3333 23.2646 26.8065 24.2023 25.8688C25.14 24.9311 25.6668 23.6594 25.6668 22.3333C25.6668 21.0072 25.14 19.7354 24.2023 18.7978C23.2646 17.8601 21.9928 17.3333 20.6668 17.3333H17.3334C16.8914 17.3333 16.4675 17.1577 16.1549 16.8451C15.8424 16.5326 15.6668 16.1087 15.6668 15.6666C15.6668 15.2246 15.8424 14.8007 16.1549 14.4881C16.4675 14.1756 16.8914 14 17.3334 14ZM19.0001 0.666626C15.3741 0.666626 11.8295 1.74186 8.81464 3.75635C5.79973 5.77084 3.4499 8.63412 2.0623 11.9841C0.674692 15.3341 0.31163 19.0203 1.01903 22.5766C1.72642 26.1329 3.4725 29.3996 6.03647 31.9636C8.60043 34.5275 11.8671 36.2736 15.4234 36.981C18.9798 37.6884 22.666 37.3254 26.016 35.9377C29.3659 34.5501 32.2292 32.2003 34.2437 29.1854C36.2582 26.1705 37.3334 22.6259 37.3334 19C37.3334 14.1377 35.4019 9.4745 31.9637 6.03633C28.5255 2.59817 23.8624 0.666626 19.0001 0.666626ZM19.0001 34C16.0334 34 13.1333 33.1202 10.6665 31.472C8.1998 29.8238 6.27721 27.4811 5.1419 24.7402C4.00658 21.9993 3.70953 18.9833 4.28831 16.0736C4.86709 13.1639 6.2957 10.4911 8.39349 8.39336C10.4913 6.29557 13.164 4.86696 16.0737 4.28818C18.9834 3.7094 21.9994 4.00645 24.7403 5.14177C27.4812 6.27708 29.8239 8.19967 31.4721 10.6664C33.1204 13.1331 34.0001 16.0332 34.0001 19C34.0001 22.9782 32.4197 26.7935 29.6067 29.6066C26.7936 32.4196 22.9783 34 19.0001 34Z" fill="white"/>
</svg>
