<svg width="38" height="38" viewBox="0 0 38 38" fill="none" xmlns="http://www.w3.org/2000/svg">
<g clip-path="url(#clip0_44_183)">
<path d="M19 37.0499C15.43 37.0499 11.9402 35.9913 8.97192 34.008C6.00361 32.0246 3.69009 29.2056 2.32393 25.9074C0.957772 22.6092 0.600322 18.9799 1.29678 15.4786C1.99325 11.9772 3.71234 8.76102 6.23668 6.23668C8.76102 3.71234 11.9772 1.99325 15.4786 1.29678C18.9799 0.600322 22.6092 0.957772 25.9074 2.32393C29.2056 3.69009 32.0246 6.00361 34.008 8.97192C35.9913 11.9402 37.0499 15.43 37.0499 19C37.0499 23.7871 35.1483 28.3782 31.7632 31.7632C28.3782 35.1483 23.7871 37.0499 19 37.0499ZM19 3.95829C16.025 3.95829 13.1168 4.84047 10.6433 6.49327C8.16967 8.14607 6.24174 10.4953 5.10327 13.2438C3.9648 15.9923 3.66693 19.0166 4.24731 21.9344C4.8277 24.8522 6.26028 27.5324 8.36389 29.636C10.4675 31.7396 13.1477 33.1722 16.0655 33.7526C18.9833 34.333 22.0076 34.0351 24.7561 32.8966C27.5047 31.7582 29.8538 29.8302 31.5066 27.3567C33.1594 24.8831 34.0416 21.9749 34.0416 19C34.0416 15.0107 32.4569 11.1848 29.636 8.36389C26.8152 5.54303 22.9893 3.95829 19 3.95829Z" fill="white"/>
<path d="M26.0572 20.9H18.593C18.197 20.9 17.8173 20.7332 17.5373 20.4363C17.2574 20.1393 17.1001 19.7366 17.1001 19.3167V8.23336C17.1001 7.81343 17.2574 7.4107 17.5373 7.11377C17.8173 6.81684 18.197 6.65002 18.593 6.65002C18.9889 6.65002 19.3686 6.81684 19.6486 7.11377C19.9285 7.4107 20.0858 7.81343 20.0858 8.23336V17.7334H26.0572C26.4532 17.7334 26.8329 17.9002 27.1129 18.1971C27.3928 18.494 27.5501 18.8968 27.5501 19.3167C27.5501 19.7366 27.3928 20.1393 27.1129 20.4363C26.8329 20.7332 26.4532 20.9 26.0572 20.9Z" fill="white"/>
</g>
<defs>
<clipPath id="clip0_44_183">
<rect width="38" height="38" fill="white"/>
</clipPath>
</defs>
</svg>
