<svg width="40" height="40" viewBox="0 0 40 40" fill="none" xmlns="http://www.w3.org/2000/svg">
<path d="M19.9991 2.5C12.537 2.5 6.16672 7.17219 3.65055 13.75H6.35672C7.09078 12.1497 8.11117 10.6758 9.39328 9.39359C12.2263 6.56039 15.9929 5 19.9991 5C24.0058 5 27.7728 6.56039 30.6062 9.39367C33.4396 12.227 35 15.9937 35 20C35 24.0066 33.4396 27.7735 30.6063 30.6066C27.773 33.4398 24.0059 35 19.9991 35C15.9927 35 12.2262 33.4398 9.3932 30.6067C8.11102 29.3245 7.09063 27.8505 6.35641 26.25H3.65039C6.16648 32.8282 12.5368 37.5 19.9991 37.5C29.6643 37.5 37.5 29.6652 37.5 20C37.5 10.3358 29.6643 2.5 19.9991 2.5Z" fill="white"/>
<path d="M16.1612 25.3034L17.9289 27.0711L25 20L17.9289 12.929L16.1611 14.6968L20.2145 18.75H2.5V21.25H20.2145L16.1612 25.3034Z" fill="white"/>
</svg>
