<svg width="30" height="30" viewBox="0 0 30 30" fill="none" xmlns="http://www.w3.org/2000/svg">
<circle cx="15" cy="15" r="15" fill="#66C454"/>
<path d="M18.858 17.9769C18.8134 17.93 18.7604 17.8927 18.7019 17.8673C18.6434 17.8419 18.5807 17.8289 18.5173 17.8289C18.454 17.8289 18.3912 17.8419 18.3328 17.8673C18.2743 17.8927 18.2212 17.93 18.1766 17.9769L15.9691 20.2784L15.9691 8.50034C15.9691 8.36764 15.9185 8.24038 15.8285 8.14655C15.7385 8.05271 15.6165 8 15.4892 8C15.3619 8 15.2399 8.05271 15.1499 8.14655C15.0599 8.24038 15.0093 8.36764 15.0093 8.50034L15.0093 20.2684L12.8162 17.9769C12.7263 17.8837 12.6047 17.8314 12.4779 17.8314C12.3511 17.8314 12.2295 17.8837 12.1395 17.9769C12.0502 18.0706 12 18.1974 12 18.3296C12 18.4618 12.0502 18.5886 12.1395 18.6823L15.1917 21.8645C15.2311 21.9074 15.2784 21.9414 15.3308 21.9647C15.3831 21.988 15.4395 22 15.4964 22C15.5533 22 15.6097 21.988 15.662 21.9647C15.7144 21.9414 15.7617 21.9074 15.8011 21.8645L18.858 18.6873C18.903 18.6408 18.9387 18.5855 18.9631 18.5245C18.9875 18.4635 19 18.3982 19 18.3321C19 18.266 18.9875 18.2007 18.9631 18.1397C18.9387 18.0787 18.903 18.0234 18.858 17.9769Z" fill="white"/>
</svg>
