<svg width="33" height="33" viewBox="0 0 33 33" fill="none" xmlns="http://www.w3.org/2000/svg">
<path d="M16.3339 0.647217C7.55987 0.647217 0.381104 7.82598 0.381104 16.6C0.381104 25.3741 7.55987 32.5528 16.3339 32.5528C25.108 32.5528 32.2867 25.3741 32.2867 16.6C32.2867 7.82598 25.108 0.647217 16.3339 0.647217ZM21.7579 21.0668C19.365 21.7049 17.7697 22.343 16.1744 22.343H16.0946C14.4993 22.343 12.9041 21.7049 10.4314 21.0668V15.8822L15.3767 17.637C15.8553 17.7965 16.3339 17.7965 16.8125 17.637L21.7579 15.8822V21.0668ZM23.3532 18.5144L23.9115 17.3977C23.5924 17.2381 23.4329 16.8393 23.5924 16.5203C23.6722 16.4405 23.6722 16.3607 23.8317 16.281V14.1273L16.1744 16.8393L7.55987 13.8083L16.0946 10.857L24.6294 13.8083V16.281C24.9484 16.5203 25.0282 16.9191 24.7889 17.2381C24.7091 17.3179 24.6294 17.3977 24.5496 17.4774L25.108 18.5941L23.3532 18.5144Z" fill="#00B696"/>
</svg>
